<svg width="400" height="400" viewBox="0 0 400 400" fill="none" xmlns="http://www.w3.org/2000/svg">
<rect width="400" height="400" rx="24" fill="#009688"/>
<path d="M160.3 238.055H95.1724L82.0274 280H61.5929L115.129 115.448H141.658L195.194 280H173.445L160.3 238.055ZM100.55 220.847H154.922L127.915 132.895L100.55 220.847ZM273.015 103.498V248.93C273.015 255.144 274.927 259.565 278.751 262.194C282.654 264.744 287.673 266.018 293.808 266.018C297.552 266.018 301.137 265.62 304.563 264.823C308.068 264.027 311.533 262.951 314.959 261.597L320.337 276.295C316.911 277.968 312.649 279.442 307.55 280.717C302.531 282.071 296.835 282.749 290.462 282.749C279.308 282.749 270.266 279.681 263.335 273.547C256.404 267.333 252.939 258.769 252.939 247.854V119.392H214.34V103.498H273.015Z" fill="#E0F2F1"/>
</svg>
